<?xml version="1.0" ?><!DOCTYPE svg  PUBLIC '-//W3C//DTD SVG 1.1//EN'  'http://www.w3.org/Graphics/SVG/1.1/DTD/svg11.dtd'><svg height="100%" style="fill-rule:evenodd;clip-rule:evenodd;stroke-linecap:round;stroke-linejoin:round;stroke-miterlimit:1.5;" version="1.1" viewBox="0 0 32 32" width="100%" xml:space="preserve" xmlns="http://www.w3.org/2000/svg" xmlns:serif="http://www.serif.com/" xmlns:xlink="http://www.w3.org/1999/xlink"><rect height="32" id="Instagram" style="fill:none;" width="32" x="0" y="0"/><path d="M28,18l0,-9c0,-3.314 -2.686,-6 -6,-6l-14,0c-3.314,0 -6,2.686 -6,6l0,14c0,3.314 2.686,6 6,6l10.5,0" style="fill:none;stroke:#ffbda4;stroke-width:1.5px;"/><path d="M22,29c3.314,0 6,-2.686 6,-6" style="fill:none;stroke:#ffbda4;stroke-width:1.5px;"/><path d="M18,19.353c-0.796,0.713 -1.848,1.147 -3,1.147c-2.484,0 -4.5,-2.016 -4.5,-4.5c0,-2.484 2.016,-4.5 4.5,-4.5c2.484,0 4.5,2.016 4.5,4.5" style="fill:none;stroke:#ffbda4;stroke-width:1.5px;"/><path d="M22,10.5c-0.828,0 -1.5,-0.672 -1.5,-1.5c0,-0.828 0.672,-1.5 1.5,-1.5c0.444,0 0.843,0.193 1.118,0.5" style="fill:none;stroke:#ffbda4;stroke-width:1.5px;"/><path d="M29,18l0,-9c0,-3.314 -2.686,-6 -6,-6l-14,0c-3.314,0 -6,2.686 -6,6l0,14c0,3.314 2.686,6 6,6l10.5,0" style="fill:none;stroke:#008afa;stroke-width:1.5px;"/><path d="M23,29c3.314,0 6,-2.686 6,-6" style="fill:none;stroke:#008afa;stroke-width:1.5px;"/><path d="M19,19.353c-0.796,0.713 -1.848,1.147 -3,1.147c-2.484,0 -4.5,-2.016 -4.5,-4.5c0,-2.484 2.016,-4.5 4.5,-4.5c2.484,0 4.5,2.016 4.5,4.5" style="fill:none;stroke:#008afa;stroke-width:1.5px;"/><path d="M23,10.5c-0.828,0 -1.5,-0.672 -1.5,-1.5c0,-0.828 0.672,-1.5 1.5,-1.5c0.444,0 0.843,0.193 1.118,0.5" style="fill:none;stroke:#008afa;stroke-width:1.5px;"/></svg>